<?xml version="1.0" encoding="utf-8"?>
<!-- Generator: Adobe Illustrator 19.0.1, SVG Export Plug-In . SVG Version: 6.00 Build 0)  -->
<svg version="1.1" id="Layer_1" xmlns="http://www.w3.org/2000/svg" xmlns:xlink="http://www.w3.org/1999/xlink" x="0px" y="0px"
	 viewBox="0 0 612 792" style="enable-background:new 0 0 612 792;" xml:space="preserve">
<style type="text/css">
	.st0{fill:#B2D450;}
	.st1{fill:#F18921;}
	.st2{fill:#069D7E;}
	.st3{fill:#0C9872;}
	.st4{fill:#02AA99;}
	.st5{fill:#A0CD4E;}
	.st6{fill:#83C451;}
	.st7{fill:#9ACB50;}
	.st8{fill:#9BCC4F;}
	.st9{fill:#8FC851;}
	.st10{fill:#74C053;}
	.st11{fill:#F9C119;}
	.st12{fill:#09A185;}
	.st13{fill:#6DBF53;}
	.st14{fill:#05B0A6;}
	.st15{fill:#06A48D;}
	.st16{fill:#03A792;}
	.st17{fill:#05BAB9;}
	.st18{fill:#B5D44F;}
	.st19{fill:#A1CE4E;}
	.st20{fill:#9ACB4F;}
	.st21{fill:#57A445;}
	.st22{fill:#109A6F;}
	.st23{fill:#059771;}
</style>
<g>
	<g>
		<g>
			<polygon class="st0" points="300,326.6 286.7,318.9 286.7,334.3 			"/>
			<polygon class="st1" points="326.6,403.7 313.3,396 313.3,411.4 			"/>
			<polygon class="st2" points="313.3,395.8 300,388.1 300,403.5 			"/>
			<polygon class="st3" points="300,403.5 286.7,395.8 286.7,411.1 			"/>
			<polygon class="st4" points="313.3,395.8 313.3,380.4 300,388.1 			"/>
			<polygon class="st5" points="273.4,326.6 273.4,342 286.7,334.3 			"/>
			<polygon class="st6" points="286.7,365.1 273.4,357.4 273.4,372.7 			"/>
			<polygon class="st7" points="286.7,318.9 273.4,326.6 286.7,334.3 			"/>
			<polygon class="st8" points="260.1,334.3 260.1,349.7 273.4,342 			"/>
			<polygon class="st9" points="273.4,326.6 260.1,334.3 273.4,342 			"/>
			<polygon class="st9" points="260.1,349.7 260.1,365 273.4,357.4 			"/>
			<polygon class="st6" points="273.4,342 260.1,349.7 273.4,357.4 			"/>
			<polygon class="st10" points="273.4,357.4 260.1,365 273.4,372.7 			"/>
			<polygon class="st11" points="286.7,380.4 300,372.7 286.7,365 			"/>
			<polygon class="st12" points="286.7,380.4 300,372.7 286.7,365 			"/>
			<polygon class="st1" points="286.7,365 273.4,372.7 286.7,380.4 			"/>
			<polygon class="st13" points="286.7,365 273.4,372.7 286.7,380.4 			"/>
			<polygon class="st1" points="326.6,418.7 313.3,411 313.3,426.4 			"/>
			<polygon class="st13" points="326.6,434.1 326.6,418.7 313.3,426.4 			"/>
			<polygon class="st2" points="286.7,395.8 300,388.1 286.7,380.4 			"/>
			<polygon class="st14" points="300,372.7 286.7,380.4 300,388.1 			"/>
			<polygon class="st8" points="353.3,403.5 340,395.7 339.9,411.1 			"/>
			<polygon class="st6" points="326.6,388 326.6,403.4 339.9,395.7 			"/>
			<polygon class="st10" points="339.9,395.7 326.6,403.4 339.9,411.1 			"/>
			<polygon class="st10" points="353.2,403.4 339.9,411.1 353.2,418.8 			"/>
			<polygon class="st15" points="300,388.1 286.7,395.8 300,403.5 			"/>
			<polygon class="st16" points="286.7,365 300,357.4 286.7,349.7 			"/>
			<polygon class="st14" points="300,357.4 286.7,365 300,372.7 			"/>
			<polygon class="st17" points="300,342 286.7,349.7 300,357.4 			"/>
			<polygon class="st18" points="339.9,380.8 353.3,373.1 339.9,365.4 			"/>
			<polygon class="st19" points="339.9,396.2 353.3,388.5 339.9,380.8 			"/>
			<polygon class="st20" points="353.3,373.1 339.9,380.8 353.3,388.5 			"/>
			<polygon class="st9" points="353.3,388.5 339.9,396.2 353.3,403.8 			"/>
			<polygon class="st6" points="313.3,411.1 326.6,403.4 313.3,395.7 			"/>
			<polygon class="st9" points="313.3,426.5 326.6,418.8 313.3,411.1 			"/>
			<polygon class="st10" points="326.6,403.4 313.3,411.1 326.6,418.8 			"/>
			<polygon class="st5" points="313.3,395.7 326.6,388 313.3,380.4 			"/>
			<polygon class="st13" points="326.6,388 313.3,395.7 326.6,403.4 			"/>
		</g>
		<path class="st21" d="M270.7,457.4h-3.6c0-1.3-0.2-2.3-0.5-2.9c-0.3-0.6-0.9-0.9-1.7-0.9c-0.9,0-1.5,0.5-1.8,1.5
			c-0.3,1-0.5,2.8-0.5,5.4c0,1.8,0.1,3.1,0.3,4c0.2,0.9,0.4,1.6,0.7,1.9c0.3,0.3,0.7,0.4,1.3,0.4c0.5,0,0.9-0.1,1.2-0.3
			c0.3-0.2,0.6-0.7,0.8-1.3c0.2-0.7,0.3-1.6,0.3-2.9h3.6c0,1-0.1,2-0.2,2.8c-0.2,0.8-0.4,1.5-0.8,2.2c-0.4,0.7-1,1.2-1.7,1.6
			c-0.8,0.4-1.7,0.6-2.9,0.6c-1,0-1.9-0.2-2.7-0.5c-0.7-0.3-1.3-0.7-1.8-1.2c-0.4-0.5-0.8-1.2-1-2c-0.2-0.8-0.4-1.7-0.5-2.5
			c-0.1-0.8-0.1-1.9-0.1-3.1c0-1.2,0-2.2,0.1-3.1c0.1-0.8,0.2-1.7,0.5-2.5c0.2-0.8,0.6-1.5,1-2c0.4-0.5,1-0.9,1.8-1.2
			c0.7-0.3,1.6-0.5,2.7-0.5c1,0,1.8,0.1,2.5,0.4c0.7,0.3,1.3,0.6,1.6,1c0.4,0.4,0.7,0.9,0.9,1.5c0.2,0.6,0.3,1.2,0.4,1.7
			C270.7,456.2,270.7,456.8,270.7,457.4z"/>
		<path class="st21" d="M272.9,469.2v-17.8h3.4v17.8H272.9z"/>
		<path class="st21" d="M278.9,454.1v-2.9h3.4v2.9H278.9z M278.9,469.2v-13.4h3.4v13.4H278.9z"/>
		<path class="st21" d="M291.5,473.6v-5.6h0c-0.7,1.1-1.7,1.6-2.9,1.6c-1.4,0-2.4-0.6-3.1-1.7c-0.7-1.1-1-2.9-1-5.4
			c0-2.5,0.3-4.3,1-5.4c0.7-1.1,1.7-1.7,3.1-1.7c1.3,0,2.3,0.6,3,1.8h0v-1.4h3.3v17.8H291.5z M291.1,465.9c0.2-0.7,0.4-1.8,0.4-3.4
			c0-1.6-0.1-2.7-0.4-3.4c-0.2-0.7-0.7-1-1.4-1c-0.7,0-1.2,0.3-1.4,1c-0.2,0.7-0.4,1.8-0.4,3.4c0,1.6,0.1,2.7,0.4,3.4
			c0.2,0.7,0.7,1,1.4,1C290.3,466.9,290.8,466.6,291.1,465.9z"/>
		<path class="st21" d="M304.1,469.2v-1.6h0c-0.7,1.3-1.8,1.9-3.4,1.9c-2.3,0-3.4-1.3-3.4-3.8v-9.9h3.4v9.2c0,0.7,0.1,1.1,0.3,1.4
			c0.2,0.3,0.6,0.4,1.1,0.4c1.2,0,1.8-0.7,1.8-2.2v-8.9h3.4v13.4H304.1z"/>
		<path class="st21" d="M319.4,463h-6.8v1.1c0,0.9,0.1,1.6,0.4,2.2c0.3,0.6,0.7,0.9,1.3,0.9c0.5,0,1-0.2,1.2-0.6
			c0.3-0.4,0.5-1,0.6-1.9h3.1c-0.1,3.2-1.8,4.9-4.9,4.9c-0.7,0-1.3-0.1-1.9-0.2c-0.5-0.2-1-0.4-1.3-0.6c-0.4-0.2-0.7-0.6-0.9-1
			c-0.3-0.4-0.5-0.8-0.6-1.2c-0.1-0.4-0.2-0.8-0.3-1.4c-0.1-0.5-0.1-1-0.1-1.4c0-0.4,0-0.9,0-1.5c0-0.8,0-1.5,0.1-2.1
			c0.1-0.6,0.2-1.2,0.4-1.9c0.2-0.6,0.5-1.1,0.9-1.6c0.4-0.4,0.9-0.7,1.6-1c0.7-0.3,1.4-0.4,2.3-0.4c1.9,0,3.2,0.6,3.9,1.7
			c0.7,1.1,1,2.8,1,5.1V463z M312.6,461h3.5c0-1.1-0.2-1.9-0.4-2.4c-0.2-0.5-0.7-0.7-1.3-0.7c-0.6,0-1.1,0.3-1.4,0.8
			c-0.3,0.5-0.4,1.2-0.4,1.9V461z"/>
		<path class="st22" d="M321.3,451.4h4.1l4.3,12.2h0v-12.2h3.3v17.8H329l-4.4-12.5h0v12.5h-3.3V451.4z"/>
		<path class="st3" d="M345.2,463h-6.8v1.1c0,0.9,0.1,1.6,0.4,2.2c0.3,0.6,0.7,0.9,1.3,0.9c0.5,0,1-0.2,1.2-0.6
			c0.3-0.4,0.5-1,0.6-1.9h3.1c-0.1,3.2-1.8,4.9-4.9,4.9c-0.7,0-1.3-0.1-1.9-0.2c-0.5-0.2-1-0.4-1.3-0.6c-0.4-0.2-0.7-0.6-0.9-1
			c-0.3-0.4-0.5-0.8-0.6-1.2c-0.1-0.4-0.2-0.8-0.3-1.4c-0.1-0.5-0.1-1-0.1-1.4c0-0.4,0-0.9,0-1.5c0-0.8,0-1.5,0.1-2.1
			c0.1-0.6,0.2-1.2,0.4-1.9c0.2-0.6,0.5-1.1,0.9-1.6c0.4-0.4,0.9-0.7,1.6-1c0.7-0.3,1.4-0.4,2.3-0.4c1.9,0,3.2,0.6,3.9,1.7
			c0.7,1.1,1,2.8,1,5.1V463z M338.4,461h3.5c0-1.1-0.2-1.9-0.4-2.4c-0.2-0.5-0.7-0.7-1.3-0.7c-0.6,0-1.1,0.3-1.4,0.8
			c-0.3,0.5-0.4,1.2-0.4,1.9V461z"/>
		<path class="st23" d="M347.7,455.8V452h3.4v3.8h2v2.3h-2v7.2c0,0.5,0.1,0.9,0.2,1.1c0.2,0.2,0.5,0.3,1,0.3c0.2,0,0.5,0,0.8,0v2.4
			c-1,0.1-1.7,0.1-2.2,0.1c-1.3,0-2.2-0.2-2.6-0.7c-0.4-0.5-0.6-1.4-0.6-2.8v-7.7H346v-2.3H347.7z"/>
	</g>
</g>
</svg>
